<svg width="18" height="17" viewBox="0 0 18 17" fill="none" xmlns="http://www.w3.org/2000/svg">
<path fill-rule="evenodd" clip-rule="evenodd" d="M18.4478 11.6557V10.7137C18.4482 10.6936 18.444 10.6737 18.4355 10.6555C18.427 10.6373 18.4144 10.6213 18.3988 10.6088C18.3831 10.5962 18.3648 10.5874 18.3452 10.583C18.3256 10.5787 18.3053 10.5789 18.2858 10.5837L13.8388 11.8687C13.8148 11.8749 13.7932 11.8881 13.7768 11.9067C13.4632 12.2526 13.1293 12.5795 12.7768 12.8857C12.504 13.1192 12.1568 13.2476 11.7978 13.2477H10.1878V11.6177H11.4638C11.4964 11.6178 11.5281 11.6061 11.5528 11.5847L11.7178 11.4327C11.7878 11.3687 11.8728 11.2897 11.9728 11.1897C11.9917 11.1698 12.011 11.149 12.0308 11.1278C12.0738 11.0816 12.1185 11.0335 12.1638 10.9897C12.2298 10.9257 12.2948 10.8537 12.3548 10.7827C12.4548 10.6747 12.5548 10.5627 12.6548 10.4437C12.7262 10.3625 12.793 10.2774 12.8548 10.1887C12.9268 10.1047 12.9978 10.0097 13.0638 9.91966C13.0851 9.88846 13.1087 9.85588 13.1325 9.82297C13.1622 9.78203 13.1921 9.74057 13.2188 9.70066C13.2668 9.62866 13.3148 9.55166 13.3558 9.47966C13.4801 9.28457 13.5882 9.07954 13.6788 8.86666C13.7171 8.785 13.7482 8.69734 13.7779 8.61347C13.7846 8.59464 13.7912 8.576 13.7978 8.55766C13.8337 8.45486 13.8634 8.35001 13.8868 8.24366C13.9395 7.99768 13.9537 7.74499 13.9288 7.49466C13.9251 7.41829 13.9151 7.34236 13.8988 7.26766V7.25566C13.892 7.20104 13.8803 7.14715 13.8638 7.09466C13.8066 6.8454 13.7245 6.60252 13.6188 6.36966C13.5828 6.28166 13.5408 6.19166 13.4998 6.10866C13.4038 5.92966 13.3028 5.75166 13.1888 5.57866C13.163 5.53525 13.1344 5.49302 13.1063 5.45149C13.0897 5.42701 13.0733 5.40276 13.0578 5.37866C12.9903 5.27067 12.9102 5.16583 12.8325 5.06415C12.8123 5.03778 12.7923 5.01161 12.7728 4.98566C12.7171 4.913 12.6549 4.83855 12.5935 4.76507C12.5754 4.74349 12.5575 4.722 12.5398 4.70066C12.4618 4.60666 12.3848 4.51666 12.3068 4.42766C12.0278 4.11266 11.7348 3.82666 11.4738 3.58366C11.4258 3.53566 11.3728 3.48766 11.3188 3.44066C11.1158 3.25566 10.9318 3.09566 10.7768 2.97066C10.7372 2.93899 10.7004 2.9076 10.6656 2.87795C10.6345 2.85144 10.6051 2.82632 10.5768 2.80366L10.3978 2.66866C10.3859 2.65994 10.3727 2.65319 10.3588 2.64866L10.1878 2.60066V1.18266C10.1878 0.961825 10.1008 0.749869 9.94576 0.592658C9.86969 0.514918 9.77883 0.45319 9.67853 0.411113C9.57823 0.369036 9.47052 0.34746 9.36176 0.347658C9.14197 0.347391 8.93106 0.434308 8.77527 0.589343C8.61949 0.744379 8.53155 0.954875 8.53076 1.17466V2.12966L8.44476 2.10566L8.21176 2.03966L7.99976 1.98066H7.99376L6.38676 1.54566C6.37083 1.54142 6.354 1.54197 6.33838 1.54723C6.32276 1.55248 6.30902 1.56222 6.2989 1.57523C6.28877 1.58824 6.28269 1.60393 6.28142 1.62037C6.28015 1.6368 6.28375 1.65325 6.29176 1.66766L6.54876 2.14266C6.563 2.17825 6.5811 2.21384 6.59974 2.25048C6.61252 2.2756 6.62556 2.30121 6.63776 2.32766C6.67976 2.41166 6.72676 2.51066 6.76276 2.58866C6.79876 2.66666 6.83476 2.74366 6.87676 2.82766C6.89816 2.87593 6.9201 2.92488 6.94242 2.97469C7.00566 3.11578 7.07198 3.26376 7.13776 3.42266L7.14506 3.44005C7.20262 3.57719 7.25991 3.7137 7.31076 3.85666C7.45576 4.23066 7.59176 4.62966 7.71076 5.03966C7.74058 5.13267 7.76435 5.22216 7.78852 5.31313C7.79839 5.35028 7.80832 5.38767 7.81876 5.42566L7.83576 5.49766C7.88376 5.68866 7.92576 5.87766 7.95576 6.06866C7.97976 6.19866 8.00276 6.32366 8.01476 6.44966C8.02921 6.56446 8.03979 6.68507 8.04961 6.79699C8.05203 6.82447 8.05439 6.85143 8.05676 6.87766C8.06876 7.01066 8.07476 7.14666 8.07476 7.27766C8.07801 7.59976 8.04446 7.92117 7.97476 8.23566C7.96987 8.25358 7.96498 8.27179 7.96005 8.29019C7.94073 8.36214 7.92065 8.43699 7.89676 8.50866C7.8738 8.58978 7.84381 8.67148 7.81263 8.75646C7.80306 8.78253 7.79338 8.8089 7.78376 8.83566C7.75976 8.90466 7.73576 8.97066 7.70576 9.03566C7.55289 9.39515 7.37789 9.74482 7.18176 10.0827C6.90276 10.5767 6.62476 11.0107 6.42476 11.2897C6.41518 11.3039 6.40585 11.3175 6.39677 11.3309C6.38027 11.3551 6.3646 11.3781 6.34976 11.4007C6.33601 11.4206 6.32794 11.4439 6.32638 11.4681C6.32483 11.4923 6.32986 11.5164 6.34094 11.538C6.35202 11.5595 6.36874 11.5776 6.38931 11.5904C6.40988 11.6032 6.43354 11.6102 6.45776 11.6107H8.53476V13.2517H6.43476C6.15603 13.2518 5.88282 13.1739 5.64602 13.0269C5.40922 12.8799 5.21827 12.6695 5.09476 12.4197C4.96585 12.1686 4.91303 11.8853 4.94276 11.6047C4.94497 11.5849 4.94309 11.5649 4.93724 11.5459C4.93139 11.5269 4.9217 11.5093 4.90875 11.4942C4.89581 11.4791 4.8799 11.4668 4.86201 11.4581C4.84412 11.4494 4.82463 11.4445 4.80476 11.4437H0.55776C0.523016 11.4437 0.489694 11.4575 0.465127 11.482C0.44056 11.5066 0.426758 11.5399 0.426758 11.5747V11.6617C0.426225 12.9595 0.940593 14.2045 1.85698 15.1235C2.77338 16.0426 4.01693 16.5605 5.31476 16.5637H12.9328C14.3608 16.5637 15.1717 15.2622 15.9686 13.9832C16.1907 13.6267 16.4118 13.272 16.6448 12.9477C17.1238 12.4337 17.7123 12.0342 18.3668 11.7787C18.3907 11.7682 18.4111 11.751 18.4255 11.7292C18.4399 11.7073 18.4476 11.6818 18.4478 11.6557ZM1.56178 9.50875L1.49878 9.60875C1.485 9.62861 1.47703 9.65192 1.47576 9.67607C1.4745 9.70021 1.48 9.72422 1.49163 9.74541C1.50327 9.7666 1.52058 9.78413 1.54163 9.79603C1.56267 9.80792 1.58662 9.81371 1.61078 9.81275H5.52078C5.54209 9.8129 5.5631 9.80778 5.58195 9.79783C5.60079 9.78789 5.61688 9.77343 5.62878 9.75575C5.67978 9.67775 5.72778 9.59675 5.77178 9.51375C6.09231 9.00427 6.34289 8.45401 6.51678 7.87775C6.77278 6.77175 6.22478 5.00175 5.58978 3.57775C5.58019 3.55638 5.565 3.538 5.54583 3.52455C5.52665 3.5111 5.5042 3.50308 5.48084 3.50134C5.45748 3.49959 5.43409 3.5042 5.41313 3.51465C5.39217 3.52511 5.37443 3.54104 5.36178 3.56075L1.56178 9.50875Z" fill="black"/>
</svg>
